<svg width="53" height="53" viewBox="0 0 53 53" fill="none" xmlns="http://www.w3.org/2000/svg">
<rect width="53" height="53" fill="white"/>
<path d="M26.5 1.46362C32.9071 1.46362 38.7355 3.88946 43.1642 7.85185L36.6398 14.3763C33.8949 12.0752 30.3645 10.6782 26.5 10.6782C17.7624 10.6782 10.6782 17.7624 10.6782 26.5C10.6782 35.2376 17.7624 42.3218 26.5 42.3218C33.3882 42.3218 39.2296 37.9127 41.4032 31.7741L41.6393 31.1073H40.9319H27V21.8927H48.9827V21.9987H49.4827H51.1257C51.3916 23.4601 51.5364 24.9637 51.5364 26.5C51.5364 40.3263 40.3263 51.5364 26.5 51.5364C12.6737 51.5364 1.46362 40.3263 1.46362 26.5C1.46362 12.6737 12.6737 1.46362 26.5 1.46362Z" fill="#FFC107" stroke="white"/>
<path d="M43.1642 7.85185L36.6397 14.3763C33.8949 12.0752 30.3645 10.6782 26.5 10.6782C20.0817 10.6782 14.5668 14.5021 12.0859 19.9915L4.55435 14.4681C8.81143 6.71953 17.0383 1.46362 26.5 1.46362C32.9071 1.46362 38.7354 3.88946 43.1642 7.85185Z" fill="#FF3D00" stroke="white"/>
<path d="M42.857 45.4158L35.6966 39.3567C33.0215 41.285 29.804 42.3245 26.4996 42.3219M42.857 45.4158L26.5 41.8219M42.857 45.4158C38.4667 49.2174 32.76 51.5364 26.5 51.5364C16.919 51.5364 8.61203 46.1425 4.40332 38.2326M26.4996 42.3219L26.5 41.8219M26.4996 42.3219C26.4997 42.3219 26.4998 42.3219 26.5 42.3219V41.8219M26.4996 42.3219C19.8801 42.3217 14.2267 38.2487 11.8675 32.4817M26.5 41.8219C20.0424 41.8219 14.5323 37.8187 12.2788 32.1648L11.8675 32.4817M11.8675 32.4817C11.8018 32.3212 11.7387 32.1594 11.6782 31.9963L12.0936 31.6763M11.8675 32.4817L4.40332 38.2326M4.40332 38.2326C4.33839 38.1106 4.27443 37.988 4.21147 37.8648L3.76624 38.0923L4.0714 38.4884L4.40332 38.2326Z" fill="#4CAF50" stroke="white"/>
<path d="M44.349 44.1053C44.0584 44.3915 43.8154 44.6116 43.6373 44.7647L36.5077 38.7315C38.7389 36.9037 40.4332 34.4996 41.4029 31.7748L41.6405 31.1071H40.9319H27V21.8926H48.9827V21.9986H49.4827H51.1258C51.3916 23.46 51.5364 24.9636 51.5364 26.4999C51.5364 32.7613 49.3369 37.5185 47.2056 40.6501C46.1396 42.2163 45.092 43.3737 44.349 44.1053Z" fill="#1976D2" stroke="white"/>
</svg>
