<svg width="54" height="54" viewBox="0 0 54 54" fill="none" xmlns="http://www.w3.org/2000/svg">
<path d="M40.5 18H38.25V13.5C38.25 7.29 33.21 2.25 27 2.25C20.79 2.25 15.75 7.29 15.75 13.5V18H13.5C11.025 18 9 20.025 9 22.5V45C9 47.475 11.025 49.5 13.5 49.5H40.5C42.975 49.5 45 47.475 45 45V22.5C45 20.025 42.975 18 40.5 18ZM27 38.25C24.525 38.25 22.5 36.225 22.5 33.75C22.5 31.275 24.525 29.25 27 29.25C29.475 29.25 31.5 31.275 31.5 33.75C31.5 36.225 29.475 38.25 27 38.25ZM33.975 18H20.025V13.5C20.025 9.6525 23.1525 6.525 27 6.525C30.8475 6.525 33.975 9.6525 33.975 13.5V18Z" fill="black"/>
</svg>
