<svg width="493" height="305" viewBox="0 0 493 305" fill="none" xmlns="http://www.w3.org/2000/svg">
<g clip-path="url(#clip0)">
<path d="M377.452 301.551C371.141 296.032 367.307 287.314 368.312 278.826C369.318 270.339 375.545 262.537 383.623 260.734C391.7 258.932 400.908 263.921 403.362 272.086C404.712 256.344 406.268 239.942 414.356 226.536C421.68 214.398 434.364 205.712 448.112 204.158C461.859 202.604 476.333 208.473 484.907 219.701C493.481 230.929 495.58 247.253 489.575 260.143C485.152 269.64 477.002 276.707 468.463 282.456C440.871 300.878 407.778 308.37 375.273 303.553L377.452 301.551Z" fill="#F2F2F2"/>
<path d="M471.313 208.798C459.969 218.359 449.563 229.052 440.244 240.722C425.661 258.924 413.859 279.331 405.251 301.233C404.621 302.831 407.129 303.527 407.752 301.947C421.836 266.351 444.319 234.978 473.146 210.696C474.44 209.605 472.596 207.717 471.313 208.798Z" fill="white"/>
<path d="M158.705 300.051C167.374 292.471 172.64 280.497 171.259 268.839C169.878 257.182 161.325 246.465 150.23 243.99C139.135 241.514 126.488 248.367 123.118 259.582C121.264 237.96 119.127 215.432 108.017 197.019C97.9584 180.346 80.536 168.416 61.654 166.282C42.772 164.148 22.8918 172.209 11.1158 187.631C-0.660221 203.052 -3.54352 225.472 4.70407 243.178C10.7798 256.221 21.9734 265.928 33.7015 273.825C71.1183 299.019 117.534 309.526 161.699 302.801" fill="#F2F2F2"/>
<path d="M29.7878 172.656C45.3677 185.787 59.6607 200.474 72.46 216.503C85.2612 232.516 96.5314 249.776 106.112 268.041C111.467 278.286 116.278 288.827 120.523 299.615C121.388 301.81 117.944 302.765 117.088 300.595C109.57 281.575 100.268 263.364 89.3167 246.221C78.4183 229.141 65.9444 213.196 52.0704 198.608C44.2232 190.361 35.9437 182.567 27.2695 175.261C25.4915 173.763 28.0245 171.17 29.7878 172.656L29.7878 172.656Z" fill="white"/>
<path d="M353.883 304.332H147.05V84.7322C147.05 38.0106 183.783 0 228.933 0H272C317.151 0 353.883 38.0106 353.883 84.7322V304.332Z" fill="#F2F2F2"/>
<path d="M310.817 304.332H147.05V84.7323C147.005 66.8296 152.483 49.3794 162.688 34.9224C163.064 34.3919 163.439 33.8682 163.826 33.3502C168.762 26.6514 174.635 20.7519 181.253 15.8464C181.627 15.5649 182.002 15.2884 182.383 15.0118C187.921 11.0463 193.911 7.80462 200.217 5.3605C200.592 5.21362 200.973 5.06645 201.355 4.92529C207.058 2.81905 212.971 1.37628 218.983 0.623633C219.355 0.570947 219.738 0.529719 220.121 0.48849C225.979 -0.159738 231.888 -0.159738 237.747 0.48849C238.129 0.529719 238.511 0.570942 238.888 0.624197C244.899 1.3769 250.81 2.81948 256.512 4.92531C256.893 5.06647 257.275 5.21364 257.65 5.36081C263.879 7.7741 269.799 10.9674 275.277 14.8695C275.658 15.14 276.039 15.4166 276.414 15.6932C280.124 18.4332 283.608 21.4858 286.832 24.8197C289.417 27.4938 291.826 30.3443 294.042 33.352C294.428 33.8682 294.803 34.3919 295.178 34.9216C305.383 49.3788 310.862 66.8293 310.817 84.7323V304.332Z" fill="#CCCCCC"/>
<path d="M297.5 206.113C302.507 206.113 306.567 201.913 306.567 196.731C306.567 191.55 302.507 187.349 297.5 187.349C292.493 187.349 288.433 191.55 288.433 196.731C288.433 201.913 292.493 206.113 297.5 206.113Z" fill="#FF634E"/>
<path d="M336.94 297.755H329.992L326.687 270.026L336.941 270.027L336.94 297.755Z" fill="#FFB8B8"/>
<path d="M325.03 295.701H338.428V304.43H316.594C316.594 303.284 316.812 302.149 317.236 301.089C317.66 300.03 318.281 299.068 319.064 298.257C319.848 297.447 320.778 296.804 321.801 296.365C322.825 295.926 323.922 295.701 325.03 295.701Z" fill="#2F2E41"/>
<path d="M371.506 297.755H364.559L361.253 270.026L371.507 270.027L371.506 297.755Z" fill="#FFB8B8"/>
<path d="M359.596 295.701H372.994V304.43H351.16C351.16 303.284 351.379 302.149 351.803 301.089C352.227 300.03 352.848 299.068 353.631 298.257C354.415 297.447 355.345 296.804 356.368 296.365C357.392 295.926 358.488 295.701 359.596 295.701Z" fill="#2F2E41"/>
<path d="M302.089 198.59C301.589 197.828 301.257 196.962 301.115 196.052C300.974 195.143 301.027 194.213 301.271 193.327C301.514 192.442 301.943 191.622 302.526 190.926C303.109 190.23 303.832 189.675 304.645 189.3L328.261 121.944L339.882 128.506L312.917 192.874C313.436 194.329 313.421 195.93 312.875 197.374C312.33 198.818 311.291 200.004 309.956 200.709C308.622 201.413 307.083 201.587 305.633 201.196C304.183 200.806 302.922 199.878 302.089 198.59Z" fill="#FFB8B8"/>
<path d="M367.957 211.246C367.185 210.788 366.52 210.161 366.007 209.407C365.495 208.654 365.149 207.794 364.992 206.888C364.836 205.981 364.874 205.05 365.103 204.16C365.332 203.27 365.747 202.443 366.318 201.737L359.002 130.486L372.227 131.111L375.267 201.196C376.35 202.268 377.015 203.714 377.136 205.259C377.258 206.804 376.827 208.342 375.926 209.581C375.025 210.82 373.716 211.673 372.247 211.98C370.779 212.287 369.252 212.026 367.957 211.246Z" fill="#FFB8B8"/>
<path d="M346.86 109.468C354.547 109.468 360.778 103.02 360.778 95.0657C360.778 87.1116 354.547 80.6636 346.86 80.6636C339.173 80.6636 332.942 87.1116 332.942 95.0657C332.942 103.02 339.173 109.468 346.86 109.468Z" fill="#FFB8B8"/>
<path d="M367.868 195.042H325.908L325.959 194.704C326.034 194.199 333.437 144.018 327.977 127.601C327.429 125.987 327.478 124.221 328.113 122.642C328.748 121.064 329.924 119.784 331.417 119.049H331.417C339.221 115.246 354.201 110.563 366.845 121.928C368.705 123.628 370.158 125.752 371.089 128.133C372.019 130.514 372.401 133.086 372.205 135.647L367.868 195.042Z" fill="#FF634E"/>
<path d="M333.967 151.434L315.077 147.468L323.932 125.754C324.461 123.651 325.776 121.851 327.586 120.75C329.397 119.648 331.556 119.334 333.589 119.878C335.623 120.421 337.365 121.777 338.434 123.648C339.503 125.518 339.812 127.752 339.291 129.857L333.967 151.434Z" fill="#FF634E"/>
<path d="M358.162 158.797L357.026 131.858C356.165 126.794 358.966 122.006 363.275 121.224C367.585 120.444 371.793 123.957 372.658 129.058L376.927 154.23L358.162 158.797Z" fill="#FF634E"/>
<path d="M366.472 191.817C373.224 218.425 373.961 252.255 372.139 289.156L363.072 287.983L346.639 217.617L337.572 289.156L327.372 288.57C324.325 249.851 321.358 216.612 326.239 194.748L366.472 191.817Z" fill="#2F2E41"/>
<path d="M356.03 106.196C353.434 109.058 348.612 107.522 348.274 103.612C348.247 103.308 348.249 103.003 348.279 102.7C348.454 100.968 349.421 99.3954 349.189 97.5668C349.137 97.1116 348.973 96.6779 348.713 96.3067C346.644 93.4397 341.787 97.589 339.835 94.9936C338.637 93.4022 340.045 90.8965 339.126 89.1177C337.913 86.7701 334.321 87.9282 332.069 86.6425C329.563 85.2121 329.713 81.233 331.362 78.8128C333.374 75.8612 336.902 74.2862 340.386 74.0592C343.869 73.8322 347.329 74.8067 350.581 76.1182C354.276 77.6084 357.941 79.6679 360.215 83.0302C362.98 87.1192 363.246 92.6164 361.863 97.3976C361.022 100.306 358.151 103.859 356.03 106.196Z" fill="#2F2E41"/>
<path d="M475.99 304.71H57.623C57.4443 304.709 57.2732 304.635 57.1471 304.504C57.021 304.374 56.9502 304.196 56.9502 304.011C56.9502 303.827 57.021 303.649 57.1471 303.518C57.2732 303.388 57.4443 303.314 57.623 303.313H475.99C476.168 303.314 476.339 303.388 476.465 303.518C476.592 303.649 476.662 303.827 476.662 304.011C476.662 304.196 476.592 304.374 476.465 304.504C476.339 304.635 476.168 304.709 475.99 304.71Z" fill="#3F3D56"/>
<path d="M265.767 240.71H192.1C191.13 240.715 190.197 240.322 189.507 239.617C188.816 238.912 188.424 237.952 188.417 236.948V66.7979C188.424 65.794 188.816 64.8341 189.507 64.1289C190.197 63.4237 191.13 63.0307 192.1 63.0361H265.767C266.737 63.0307 267.67 63.4237 268.36 64.1289C269.051 64.8341 269.443 65.794 269.45 66.7979V236.948C269.443 237.952 269.051 238.912 268.36 239.617C267.67 240.322 266.737 240.715 265.767 240.71Z" fill="white"/>
<path d="M269.45 118.091H188.417V119.264H269.45V118.091Z" fill="#CCCCCC"/>
<path d="M269.733 185.004H188.7V186.176H269.733V185.004Z" fill="#CCCCCC"/>
<path d="M215.05 63.0361H213.917V241.296H215.05V63.0361Z" fill="#CCCCCC"/>
<path d="M243.383 63.0361H242.25V241.296H243.383V63.0361Z" fill="#CCCCCC"/>
</g>
<defs>
<clipPath id="clip0">
<rect width="493" height="305" fill="white"/>
</clipPath>
</defs>
</svg>
