<svg width="108" height="108" viewBox="0 0 108 108" fill="none" xmlns="http://www.w3.org/2000/svg">
<circle cx="54" cy="54" r="54" fill="#172135"/>
<path d="M13.312 33.2H33.664C38.528 33.2 42.816 34.1387 46.528 36.016C50.2827 37.8507 53.184 40.4533 55.232 43.824C57.3227 47.1947 58.368 51.12 58.368 55.6C58.368 60.08 57.3227 64.0053 55.232 67.376C53.184 70.7467 50.2827 73.3707 46.528 75.248C42.816 77.0827 38.528 78 33.664 78H13.312V33.2ZM33.152 69.488C37.632 69.488 41.1947 68.2507 43.84 65.776C46.528 63.2587 47.872 59.8667 47.872 55.6C47.872 51.3333 46.528 47.9627 43.84 45.488C41.1947 42.9707 37.632 41.712 33.152 41.712H23.68V69.488H33.152ZM74.842 41.648H60.506V33.2H99.546V41.648H85.21V78H74.842V41.648Z" fill="url(#paint0_linear)"/>
<path d="M13.312 33.2V32.2H12.312V33.2H13.312ZM46.528 36.016L46.0766 36.9084L46.089 36.9145L46.528 36.016ZM55.232 43.824L54.3773 44.3433L54.3822 44.3511L55.232 43.824ZM55.232 67.376L54.3822 66.8489L54.3774 66.8567L55.232 67.376ZM46.528 75.248L46.9711 76.1445L46.9752 76.1424L46.528 75.248ZM13.312 78H12.312V79H13.312V78ZM43.84 65.776L44.5232 66.5063L44.5236 66.5059L43.84 65.776ZM43.84 45.488L43.1506 46.2124L43.1566 46.2181L43.1627 46.2237L43.84 45.488ZM23.68 41.712V40.712H22.68V41.712H23.68ZM23.68 69.488H22.68V70.488H23.68V69.488ZM13.312 34.2H33.664V32.2H13.312V34.2ZM33.664 34.2C38.3977 34.2 42.5265 35.1129 46.0767 36.9084L46.9793 35.1236C43.1055 33.1645 38.6583 32.2 33.664 32.2V34.2ZM46.089 36.9145C49.6824 38.6704 52.4348 41.1461 54.3774 44.3433L56.0866 43.3047C53.9332 39.7606 50.8829 37.031 46.967 35.1175L46.089 36.9145ZM54.3822 44.3511C56.3624 47.5437 57.368 51.2815 57.368 55.6H59.368C59.368 50.9585 58.2829 46.8456 56.0818 43.2969L54.3822 44.3511ZM57.368 55.6C57.368 59.9185 56.3624 63.6563 54.3822 66.8489L56.0818 67.9031C58.2829 64.3544 59.368 60.2415 59.368 55.6H57.368ZM54.3774 66.8567C52.4335 70.056 49.6784 72.5548 46.0808 74.3536L46.9752 76.1424C50.887 74.1865 53.9345 71.4373 56.0866 67.8953L54.3774 66.8567ZM46.0849 74.3515C42.5328 76.1072 38.401 77 33.664 77V79C38.655 79 43.0992 78.0582 46.9711 76.1445L46.0849 74.3515ZM33.664 77H13.312V79H33.664V77ZM14.312 78V33.2H12.312V78H14.312ZM33.152 70.488C37.8227 70.488 41.6512 69.193 44.5232 66.5063L43.1568 65.0457C40.7382 67.3084 37.4413 68.488 33.152 68.488V70.488ZM44.5236 66.5059C47.446 63.769 48.872 60.0953 48.872 55.6H46.872C46.872 59.638 45.61 62.7483 43.1564 65.0461L44.5236 66.5059ZM48.872 55.6C48.872 51.1051 47.4459 47.4485 44.5173 44.7523L43.1627 46.2237C45.6101 48.4769 46.872 51.5616 46.872 55.6H48.872ZM44.5294 44.7636C41.658 42.0311 37.8272 40.712 33.152 40.712V42.712C37.4368 42.712 40.7314 43.9102 43.1506 46.2124L44.5294 44.7636ZM33.152 40.712H23.68V42.712H33.152V40.712ZM22.68 41.712V69.488H24.68V41.712H22.68ZM23.68 70.488H33.152V68.488H23.68V70.488ZM74.842 41.648H75.842V40.648H74.842V41.648ZM60.506 41.648H59.506V42.648H60.506V41.648ZM60.506 33.2V32.2H59.506V33.2H60.506ZM99.546 33.2H100.546V32.2H99.546V33.2ZM99.546 41.648V42.648H100.546V41.648H99.546ZM85.21 41.648V40.648H84.21V41.648H85.21ZM85.21 78V79H86.21V78H85.21ZM74.842 78H73.842V79H74.842V78ZM74.842 40.648H60.506V42.648H74.842V40.648ZM61.506 41.648V33.2H59.506V41.648H61.506ZM60.506 34.2H99.546V32.2H60.506V34.2ZM98.546 33.2V41.648H100.546V33.2H98.546ZM99.546 40.648H85.21V42.648H99.546V40.648ZM84.21 41.648V78H86.21V41.648H84.21ZM85.21 77H74.842V79H85.21V77ZM75.842 78V41.648H73.842V78H75.842Z" fill="white"/>
<mask id="mask0" mask-type="alpha" maskUnits="userSpaceOnUse" x="13" y="33" width="87" height="45">
<path d="M13.312 33.2H33.664C38.528 33.2 42.816 34.1387 46.528 36.016C50.2827 37.8507 53.184 40.4533 55.232 43.824C57.3227 47.1947 58.368 51.12 58.368 55.6C58.368 60.08 57.3227 64.0053 55.232 67.376C53.184 70.7467 50.2827 73.3707 46.528 75.248C42.816 77.0827 38.528 78 33.664 78H13.312V33.2ZM33.152 69.488C37.632 69.488 41.1947 68.2507 43.84 65.776C46.528 63.2587 47.872 59.8667 47.872 55.6C47.872 51.3333 46.528 47.9627 43.84 45.488C41.1947 42.9707 37.632 41.712 33.152 41.712H23.68V69.488H33.152ZM74.842 41.648H60.506V33.2H99.546V41.648H85.21V78H74.842V41.648Z" fill="#BC9F9F"/>
</mask>
<g mask="url(#mask0)">
<path d="M26 39L11 45.114C11.8333 48.4473 14.1 55.714 16.5 58.114C19.5 61.1139 25.5 66.114 25.5 75.114C25.5 82.314 42 80.5 47 72C57.8176 53.6102 69.706 73.7058 75 70C80 66.5 82.5 51 80.5 39C78.9705 29.8228 70.1667 36.1666 69 42.5C69 54 53.3 54.114 48.5 58.114C42.5 63.114 34.5 63.614 37.5 49.114C39.9 37.514 29.6667 35.8333 26 39Z" fill="url(#paint1_linear)" stroke="#00F160" stroke-linecap="round" stroke-linejoin="round"/>
</g>
<defs>
<linearGradient id="paint0_linear" x1="54" y1="16" x2="54" y2="94" gradientUnits="userSpaceOnUse">
<stop stop-color="#C1BDED"/>
<stop offset="0.378125" stop-color="#5574A3" stop-opacity="0.538542"/>
<stop offset="1" stop-color="#340F83" stop-opacity="0"/>
</linearGradient>
<linearGradient id="paint1_linear" x1="46.0952" y1="34.3986" x2="46.0952" y2="79.5884" gradientUnits="userSpaceOnUse">
<stop stop-color="#FF2626"/>
<stop offset="1" stop-color="#3713C5"/>
</linearGradient>
</defs>
</svg>
